<svg xmlns="http://www.w3.org/2000/svg" width="920" height="280" viewBox="0 0 920 280"><rect width="920" height="280" fill="#f7fafc"/><defs><marker id="arrow" markerWidth="8" markerHeight="8" refX="7" refY="4" orient="auto"><path d="M0 0 L8 4 L0 8" fill="#526b80"/></marker></defs><g font-family='Microsoft YaHei, sans-serif' font-size="18" fill="#1f3e56"><rect x="25" y="35" width="290" height="54" rx="7" fill="#e7eff5"/><text x="45" y="69">线性深度 → 距离变化</text><path d="M315 62 L405 62 L405 140 L455 140" fill="none" stroke="#526b80" stroke-width="2" marker-end="url(#arrow)"/><rect x="25" y="112" width="290" height="54" rx="7" fill="#e7eff5"/><text x="45" y="146">法线 → 夹角变化</text><path d="M315 139 L405 139 L405 140 L455 140" fill="none" stroke="#526b80" stroke-width="2" marker-end="url(#arrow)"/><rect x="25" y="189" width="290" height="54" rx="7" fill="#e7eff5"/><text x="45" y="223">对象ID → 类别边界</text><path d="M315 216 L405 216 L405 140 L455 140" fill="none" stroke="#526b80" stroke-width="2" marker-end="url(#arrow)"/><rect x="465" y="108" width="180" height="64" rx="7" fill="#daeae5"/><text x="486" y="147">组合与区域控制</text><path d="M645 140 L704 140" stroke="#526b80" stroke-width="2" marker-end="url(#arrow)"/><rect x="715" y="108" width="180" height="64" rx="7" fill="#daeae5"/><text x="745" y="147">颜色合成</text></g></svg>